<svg width="800" height="800" viewBox="0 0 800 800" fill="none" xmlns="http://www.w3.org/2000/svg">
<rect width="800" height="800" rx="400" fill="white"/>
<g clip-path="url(#clip0_204_107)">
<path fill-rule="evenodd" clip-rule="evenodd" d="M395.495 108.879C401.484 108.879 407.473 108.879 413.463 108.879C426.869 120.415 439.222 133.142 450.522 147.06C471.973 172.913 476.84 201.362 465.12 232.408C461.179 233.693 457.435 235.564 453.89 238.022C460.314 240.439 467.052 242.311 474.104 243.637C465.96 245.034 457.724 245.409 449.399 244.76C445.389 249.759 440.15 252.38 433.677 252.621C443.341 244.824 451.95 235.841 459.505 225.67C463.997 210.696 463.997 195.723 459.505 180.75C448.105 155.866 431.635 134.903 410.094 117.863C408.971 139.561 408.598 161.272 408.971 182.996C405.977 182.996 402.982 182.996 399.987 182.996C400.361 161.272 399.987 139.561 398.864 117.863C396.531 119.533 395.408 121.779 395.495 124.601C367.282 143.948 350.063 170.525 343.838 204.333C345.001 214.568 348.37 223.926 353.945 232.408C364.998 244.796 377.351 255.277 391.003 263.851C382.135 260.176 373.151 256.433 364.051 252.621C361.824 253.007 360.327 252.258 359.56 250.375C341.705 246.256 322.989 244.01 303.41 243.637C303.659 242.251 304.407 241.128 305.656 240.268C319.194 239.887 332.67 238.764 346.084 236.899C336.528 218.239 334.656 198.774 340.469 178.504C354.297 151.592 372.639 128.383 395.495 108.879Z" fill="#1D1A20"/>
<path fill-rule="evenodd" clip-rule="evenodd" d="M395.493 124.602C395.957 131.891 392.588 136.383 385.386 138.077C384.302 140.207 383.928 142.453 384.263 144.815C381.269 144.815 378.274 144.815 375.28 144.815C375.857 155.735 371.366 163.596 361.804 168.398C369.118 170.74 376.605 171.863 384.263 171.767C384.263 174.762 384.263 177.756 384.263 180.751C380.52 180.751 376.777 180.751 373.034 180.751C372.238 187.311 374.484 192.551 379.772 196.473C375.57 202.613 373.324 209.351 373.034 216.687C377.526 216.687 382.018 216.687 386.509 216.687C386.509 218.933 386.509 221.178 386.509 223.424C379.198 224.517 373.209 222.271 368.542 216.687C369.231 204.806 368.483 192.828 366.296 180.751C362.184 179.511 358.441 179.511 355.066 180.751C353.115 194.901 352.366 208.752 352.82 222.301C353.917 225.859 356.163 228.479 359.558 230.162C372.533 232.216 379.271 239.702 379.772 252.622C388.564 252.053 396.799 253.55 404.477 257.114C404.477 259.36 404.477 261.606 404.477 263.852C407.471 263.852 410.467 263.852 413.461 263.852C411.224 266.469 408.23 267.966 404.477 268.344C399.949 266.822 395.457 265.325 391.001 263.852C377.349 255.278 364.997 244.796 353.943 232.408C348.369 223.927 345 214.568 343.836 204.334C350.061 170.526 367.28 143.949 395.493 124.602Z" fill="#6B6192"/>
<path fill-rule="evenodd" clip-rule="evenodd" d="M399.985 182.997C386.033 192.751 385.284 203.606 397.739 215.563C416.502 216.622 423.24 208.013 417.953 189.734C414.917 187.434 411.923 185.188 408.969 182.997C408.596 161.273 408.969 139.561 410.092 117.863C431.633 134.904 448.103 155.867 459.504 180.751C463.996 195.724 463.996 210.697 459.504 225.67C451.948 235.841 443.339 244.825 433.675 252.622C427.299 256.935 420.561 260.678 413.461 263.852C410.467 263.852 407.471 263.852 404.477 263.852C404.477 261.606 404.477 259.36 404.477 257.114C396.799 253.55 388.564 252.053 379.772 252.622C379.271 239.702 372.533 232.215 359.558 230.162C356.163 228.479 353.917 225.859 352.82 222.301C352.366 208.751 353.115 194.901 355.066 180.751C358.441 179.51 362.184 179.51 366.296 180.751C368.483 192.827 369.231 204.806 368.542 216.686C373.209 222.271 379.198 224.517 386.51 223.424C386.51 221.178 386.51 218.932 386.51 216.686C382.018 216.686 377.526 216.686 373.034 216.686C373.324 209.351 375.57 202.613 379.772 196.472C374.484 192.551 372.238 187.31 373.034 180.751C376.777 180.751 380.52 180.751 384.264 180.751C384.264 177.756 384.264 174.761 384.264 171.767C376.605 171.863 369.118 170.74 361.804 168.398C371.366 163.596 375.858 155.735 375.28 144.815C378.274 144.815 381.269 144.815 384.264 144.815C383.928 142.452 384.302 140.206 385.387 138.077C392.588 136.382 395.957 131.89 395.493 124.601C395.407 121.78 396.53 119.534 398.862 117.863C399.985 139.561 400.359 161.273 399.985 182.997Z" fill="#6D5F9B"/>
<path fill-rule="evenodd" clip-rule="evenodd" d="M399.983 182.996C402.978 182.996 405.973 182.996 408.967 182.996C411.921 185.187 414.915 187.433 417.951 189.734C423.238 208.012 416.5 216.622 397.737 215.563C385.282 203.606 386.031 192.75 399.983 182.996Z" fill="#F7F5F9"/>
<path fill-rule="evenodd" clip-rule="evenodd" d="M465.115 232.41C464.432 233.87 463.684 235.367 462.869 236.902C476.841 238.441 490.692 239.938 504.419 241.394C541.73 289.872 579.536 337.787 617.841 385.136C617.841 403.852 617.841 422.57 617.841 441.286C542.866 446.44 473.614 468.9 410.088 508.665C408.972 513.853 408.599 519.093 408.965 524.387C407.472 519.45 405.974 514.21 404.473 508.665C402.974 514.967 401.477 520.955 399.982 526.633C401.119 518.756 399.622 511.643 395.49 505.296C331.571 467.71 262.695 446.373 188.86 441.286C188.646 423.316 188.646 405.721 188.86 388.505C227.852 340.832 266.034 292.544 303.405 243.64C322.983 244.013 341.699 246.259 359.554 250.378C343.263 247.841 326.792 247.466 310.143 249.255C275.601 294.004 240.788 338.548 205.705 382.89C204.68 385.684 205.803 387.555 209.074 388.505C217.261 390.12 225.496 391.243 233.779 391.874C294.28 403.812 351.178 425.521 404.473 457.008C436.265 438.685 469.207 422.963 503.296 409.842C536.683 400.764 570.372 392.53 604.365 385.136C568.906 340.046 533.72 294.752 498.804 249.255C483.083 247.758 467.361 247.758 451.639 249.255C438.889 260.87 424.665 270.228 408.965 277.33C405.972 277.33 402.976 277.33 399.982 277.33C386.357 271.284 374.378 263.048 364.046 252.624C373.145 256.435 382.129 260.179 390.998 263.854C395.454 265.326 399.946 266.824 404.473 268.346C408.226 267.968 411.22 266.471 413.457 263.854C420.557 260.68 427.295 256.937 433.671 252.624C440.144 252.382 445.384 249.762 449.393 244.763C457.719 245.411 465.955 245.037 474.099 243.64C467.046 242.314 460.308 240.442 453.885 238.025C457.429 235.567 461.173 233.695 465.115 232.41Z" fill="#201C19"/>
<path fill-rule="evenodd" clip-rule="evenodd" d="M399.988 277.32C402.982 277.32 405.978 277.32 408.971 277.32C411.965 278.818 414.961 280.315 417.955 281.812C407.473 281.812 396.993 281.812 386.512 281.812C391.004 280.315 395.496 278.818 399.988 277.32Z" fill="#C0BC59"/>
<path fill-rule="evenodd" clip-rule="evenodd" d="M503.3 409.835C492.281 408.573 482.549 408.573 474.102 409.835C474.102 407.589 474.102 405.343 474.102 403.097C482.987 401.855 482.987 399.984 474.102 397.482C479.629 392.323 484.869 386.708 489.824 380.638C491.814 382.491 492.562 384.736 492.07 387.375C502.076 388.559 503.571 385.19 496.562 377.269C493.303 377.859 490.309 377.484 487.578 376.146C491.12 371.523 493.366 366.281 494.316 360.424C491.506 353.111 489.26 345.623 487.578 337.964C489.076 336.466 490.572 334.97 492.07 333.472C487.409 326.592 482.17 320.603 476.348 315.504C461.006 297.345 441.54 286.115 417.953 281.815C414.959 280.317 411.963 278.82 408.969 277.323C424.668 270.221 438.892 260.863 451.642 249.248C467.364 247.751 483.086 247.751 498.808 249.248C533.724 294.745 568.909 340.039 604.369 385.13C570.376 392.523 536.686 400.757 503.3 409.835Z" fill="#FAF311"/>
<path fill-rule="evenodd" clip-rule="evenodd" d="M359.552 250.377C360.319 252.259 361.817 253.008 364.044 252.623C374.376 263.047 386.355 271.283 399.979 277.329C395.487 278.826 390.995 280.323 386.503 281.821C360.904 287.89 340.69 302.114 325.862 324.494C321.384 339.329 320.635 354.303 323.616 369.414C325.393 375.965 325.393 382.328 323.616 388.504C326.407 394.018 330.899 396.639 337.092 396.365C337.092 398.611 337.092 400.857 337.092 403.103C319.389 405.87 319.389 409.239 337.092 413.21C331.851 414.708 326.611 414.708 321.37 413.21C320.087 410.504 318.59 407.883 316.878 405.349C314.704 407.57 312.083 409.068 309.017 409.841C302.526 408.426 296.162 406.555 289.927 404.226C292.172 403.478 294.418 402.728 296.664 401.98C287.681 400.482 278.697 398.986 269.713 397.488C276.887 396.159 284 396.531 291.049 398.611C292.921 398.236 294.793 397.863 296.664 397.488C275.827 394.501 254.864 392.63 233.777 391.873C225.494 391.242 217.259 390.119 209.071 388.504C205.801 387.554 204.678 385.683 205.702 382.889C240.786 338.547 275.599 294.002 310.14 249.254C326.79 247.465 343.261 247.84 359.552 250.377Z" fill="#FAF310"/>
<path fill-rule="evenodd" clip-rule="evenodd" d="M606.615 396.363C608.834 407.908 609.582 419.888 608.861 432.299C537.666 438.936 471.41 460.648 410.092 497.432C408.23 486.128 408.605 474.898 411.215 463.743C471.625 427.883 536.758 405.424 606.615 396.363Z" fill="#F7F7F5"/>
<path fill-rule="evenodd" clip-rule="evenodd" d="M202.336 396.363C271.872 406.315 337.006 428.775 397.736 463.743C400.346 474.898 400.72 486.128 398.859 497.432C337.059 461.84 270.803 440.128 200.09 432.299C199.368 419.888 200.117 407.908 202.336 396.363Z" fill="#F7F7F6"/>
<path fill-rule="evenodd" clip-rule="evenodd" d="M202.337 396.363C200.118 407.907 199.369 419.888 200.091 432.299C197.136 419.917 197.136 407.189 200.091 394.117C201.454 394.396 202.203 395.144 202.337 396.363Z" fill="#989895"/>
<path fill-rule="evenodd" clip-rule="evenodd" d="M386.506 281.82C396.988 281.82 407.468 281.82 417.95 281.82C441.537 286.12 461.003 297.35 476.345 315.51C497.098 361.415 484.37 394.732 438.164 415.456C398.993 428.211 364.929 420.35 335.972 391.873C331.189 384.535 327.071 377.05 323.619 369.413C320.638 354.302 321.387 339.329 325.865 324.494C340.693 302.114 360.907 287.889 386.506 281.82Z" fill="#211B16"/>
<path fill-rule="evenodd" clip-rule="evenodd" d="M384.267 290.797C420.281 284.69 449.104 295.92 470.737 324.486C485.507 368.669 470.16 397.492 424.695 410.956C391.046 417.883 362.971 408.524 340.47 382.882C324.002 354.405 328.12 329.326 352.823 307.642C362.515 300.181 372.996 294.566 384.267 290.797Z" fill="#F5F5F4"/>
<path fill-rule="evenodd" clip-rule="evenodd" d="M377.526 340.211C378.913 340.46 380.036 341.208 380.895 342.457C387.759 372.301 377.278 382.035 349.451 371.655C347.954 365.665 347.954 359.677 349.451 353.687C350.149 358.305 351.272 362.796 352.82 367.163C377.191 373.481 385.426 364.497 377.526 340.211Z" fill="#1E1E1C"/>
<path fill-rule="evenodd" clip-rule="evenodd" d="M431.431 326.739C435.366 326.554 437.612 328.426 438.169 332.354C437.336 346.07 437.336 359.921 438.169 373.905C427.581 373.17 417.102 373.92 406.725 376.151C401.938 390.138 392.954 395.003 379.773 390.749C391.81 390.761 399.671 385.146 403.356 373.905C403.258 367.025 402.51 360.287 401.11 353.691C405.69 357.01 407.561 361.502 406.725 367.167C410.541 367.526 414.285 367.153 417.955 366.044C411.653 363.113 409.78 358.246 412.34 351.445C414.696 347.835 418.065 346.34 422.447 346.953C424.035 354.333 424.783 361.819 424.693 369.413C428.437 369.413 432.179 369.413 435.923 369.413C434.425 355.189 432.929 340.963 431.431 326.739Z" fill="#1C1C1C"/>
<path fill-rule="evenodd" clip-rule="evenodd" d="M413.457 353.687C417.632 353.599 420.626 355.47 422.441 359.301C416.95 361.345 413.956 359.472 413.457 353.687Z" fill="#D2D2D2"/>
<path fill-rule="evenodd" clip-rule="evenodd" d="M444.902 328.98C446.524 329.918 447.647 331.416 448.271 333.472C449.769 346.948 449.769 360.424 448.271 373.9C447.09 358.917 445.967 343.945 444.902 328.98Z" fill="#151514"/>
<path fill-rule="evenodd" clip-rule="evenodd" d="M388.755 313.258C393.048 326.914 394.171 341.139 392.124 355.931C389.455 341.831 388.332 327.606 388.755 313.258Z" fill="#2B2B2B"/>
<path fill-rule="evenodd" clip-rule="evenodd" d="M411.212 331.23C413.622 332.916 413.997 335.163 412.335 337.968C408.454 336.055 408.079 333.808 411.212 331.23Z" fill="#161616"/>
<path fill-rule="evenodd" clip-rule="evenodd" d="M417.949 328.98C422.075 329.294 422.823 330.791 420.195 333.472C418.403 332.446 417.655 330.949 417.949 328.98Z" fill="#161616"/>
<path fill-rule="evenodd" clip-rule="evenodd" d="M364.052 326.734C369.129 328.391 369.503 330.637 365.175 333.472C361.293 331.558 360.919 329.312 364.052 326.734Z" fill="#181818"/>
<path fill-rule="evenodd" clip-rule="evenodd" d="M606.613 396.363C606.748 395.144 607.496 394.396 608.859 394.117C611.815 407.189 611.815 419.917 608.859 432.299C609.58 419.888 608.832 407.907 606.613 396.363Z" fill="#8D8D8C"/>
<path fill-rule="evenodd" clip-rule="evenodd" d="M476.35 315.508C482.172 320.606 487.412 326.596 492.072 333.476C490.574 334.974 489.078 336.469 487.58 337.968C489.263 345.626 491.509 353.114 494.318 360.427C493.368 366.285 491.122 371.527 487.58 376.149C490.311 377.488 493.305 377.863 496.564 377.272C503.574 385.194 502.078 388.563 492.072 387.379C492.564 384.74 491.816 382.494 489.826 380.641C484.872 386.712 479.632 392.327 474.104 397.486C482.99 399.988 482.99 401.859 474.104 403.101C474.104 405.347 474.104 407.593 474.104 409.839C482.552 408.577 492.283 408.577 503.302 409.839C469.213 422.96 436.271 438.682 404.479 457.004C351.183 425.518 294.285 403.808 233.785 391.871C254.872 392.628 275.835 394.499 296.672 397.486C294.801 397.861 292.929 398.234 291.058 398.609C284.008 396.529 276.895 396.156 269.721 397.486C278.705 398.984 287.689 400.48 296.672 401.978C294.426 402.726 292.181 403.476 289.935 404.224C296.17 406.553 302.534 408.424 309.025 409.839C312.091 409.066 314.712 407.568 316.886 405.347C318.598 407.88 320.095 410.501 321.378 413.208C326.619 414.706 331.859 414.706 337.1 413.208C319.397 409.237 319.397 405.868 337.1 403.101C337.1 400.855 337.1 398.609 337.1 396.363C330.907 396.637 326.415 394.016 323.624 388.502C325.401 382.326 325.401 375.963 323.624 369.411C327.076 377.048 331.194 384.533 335.977 391.871C364.934 420.348 398.998 428.209 438.169 415.454C484.375 394.73 497.103 361.413 476.35 315.508Z" fill="#F3EE23"/>
<path fill-rule="evenodd" clip-rule="evenodd" d="M373.035 546.844C383.025 558.624 386.768 572.1 384.265 587.272C377.44 590.036 370.702 589.661 364.051 586.149C360.442 583.793 358.945 580.424 359.559 576.042C353.437 576.572 348.196 574.701 343.837 570.427C322.571 551.089 305.352 529.002 292.18 504.171C291.676 495.908 290.927 487.672 289.934 479.465C307.25 486.252 323.72 494.863 339.345 505.294C344.211 513.154 350.575 519.517 358.436 524.384C362.82 532.463 367.687 539.951 373.035 546.844Z" fill="#0D8D41"/>
<path fill-rule="evenodd" clip-rule="evenodd" d="M220.303 468.23C234.861 482.78 251.331 494.76 269.714 504.166C275.8 508.056 281.789 511.8 287.682 515.396C308.577 548.78 335.154 577.23 367.414 600.743C368.523 604.413 368.897 608.157 368.537 611.973C362.415 612.503 357.175 610.632 352.815 606.358C342.356 596.287 332.623 586.18 323.618 576.037C309.943 570.326 296.468 563.963 283.19 556.946C275.737 554.972 268.25 553.099 260.73 551.332C258.559 547.999 255.564 545.753 251.746 544.594C245.942 534.637 239.578 524.905 232.656 515.396C227.374 507.088 224.005 498.104 222.549 488.444C220.303 488.444 218.057 488.444 215.811 488.444C214.565 480.556 216.063 473.818 220.303 468.23Z" fill="#0F8C41"/>
<path fill-rule="evenodd" clip-rule="evenodd" d="M516.772 479.465C517.143 487.735 516.77 495.968 515.649 504.171C495.002 540.169 467.675 570.115 433.671 594.01C428.182 591.88 423.69 588.511 420.195 583.903C423.373 567.97 429.363 553.371 438.163 540.106C445.489 528.658 454.848 518.924 466.238 510.908C467.323 508.779 467.695 506.533 467.361 504.171C476.064 502.65 483.55 498.533 489.821 491.818C498.679 486.989 507.663 482.872 516.772 479.465Z" fill="#0C8C42"/>
<path fill-rule="evenodd" clip-rule="evenodd" d="M584.157 504.17C576.73 512.988 570.367 522.722 565.067 533.368C559.041 539.019 553.426 545.009 548.222 551.336C523.22 555.98 500.76 566.087 480.843 581.656C469.157 591.857 457.552 601.964 446.03 611.977C440.671 608.505 439.548 604.013 442.661 598.501C472.872 577.281 497.577 551.077 516.778 519.892C523.772 515.669 529.76 510.43 534.746 504.17C537.83 504.523 540.826 504.148 543.73 503.047C547.977 499.808 552.469 497.187 557.206 495.186C566.884 485.865 577.366 477.629 588.649 470.48C589.397 472.351 590.147 474.225 590.895 476.095C587.942 485.32 585.696 494.679 584.157 504.17Z" fill="#158744"/>
<path fill-rule="evenodd" clip-rule="evenodd" d="M557.201 495.183C562.369 493.925 567.609 492.802 572.923 491.814C574.802 489.543 575.55 486.922 575.169 483.953C578.162 483.953 581.159 483.953 584.152 483.953C581.915 498.26 573.679 504.998 559.447 504.167C559.447 506.413 559.447 508.659 559.447 510.905C561.809 510.57 564.055 510.943 566.185 512.028C564.806 514.566 564.806 517.56 566.185 521.012C565.962 526.734 562.968 530.103 557.201 531.119C555.525 533.895 554.777 536.891 554.955 540.103C552.709 540.103 550.463 540.103 548.217 540.103C548.217 542.348 548.217 544.594 548.217 546.84C539.287 548.707 530.303 549.08 521.265 547.963C517.892 546.654 514.898 544.783 512.281 542.348C516.054 539.498 518.676 535.754 520.142 531.119C522.424 533.666 523.922 532.918 524.634 528.873C527.291 531.637 529.91 531.637 532.495 528.873C530.047 525.497 527.426 524.749 524.634 526.627C522.15 516.751 525.519 513.757 534.741 517.643C538.236 515.291 541.98 513.793 545.971 513.151C545.618 510.067 545.993 507.071 547.094 504.167C551.568 502.307 554.937 499.313 557.201 495.183Z" fill="#03913F"/>
<path fill-rule="evenodd" clip-rule="evenodd" d="M399.982 526.63C401.477 520.952 402.975 514.965 404.474 508.662C405.974 514.208 407.472 519.448 408.966 524.384C417.09 528.016 423.08 534.006 426.934 542.352C437.744 528.919 448.973 515.818 460.623 503.048C478.562 485.848 499.524 474.618 523.511 469.358C526.785 474.023 528.281 479.263 528.003 485.08C527.113 490.784 526.738 496.399 526.88 501.925C552.241 488.545 575.076 471.7 595.382 451.39C597.511 450.305 599.757 449.932 602.12 450.267C603.355 464.623 601.109 478.099 595.382 490.695C591.633 495.393 587.889 499.885 584.152 504.171C585.69 494.679 587.936 485.32 590.89 476.096C590.142 474.225 589.392 472.352 588.644 470.481C577.36 477.63 566.878 485.866 557.2 495.187C552.463 497.188 547.972 499.809 543.724 503.048C540.82 504.148 537.824 504.523 534.74 504.171C517.44 511.558 514.446 507.441 525.757 491.818C523.538 486.951 520.544 482.834 516.773 479.465C507.663 482.872 498.679 486.989 489.821 491.818C483.55 498.533 476.064 502.65 467.361 504.171C467.696 506.533 467.323 508.779 466.238 510.908C454.849 518.924 445.49 528.658 438.164 540.106C435.525 539.614 433.279 540.362 431.426 542.352C429.175 546.866 426.929 551.358 424.688 555.828C421.903 547.406 418.161 539.545 413.458 532.245C405.678 530.41 398.191 531.16 390.998 534.491C389.337 542.323 387.466 550.184 385.383 558.074C384.099 550.871 379.982 547.127 373.03 546.844C367.682 539.951 362.816 532.463 358.431 524.384C350.571 519.517 344.207 513.154 339.341 505.293C323.716 494.863 307.245 486.252 289.929 479.465C290.922 487.672 291.671 495.908 292.175 504.171C293.125 509.294 291.627 513.038 287.683 515.4C281.79 511.805 275.801 508.061 269.715 504.171C270.097 501.201 269.348 498.58 267.469 496.31C252.779 489.1 239.304 480.116 227.042 469.358C224.913 468.273 222.667 467.9 220.304 468.235C216.064 473.823 214.567 480.561 215.812 488.449C218.058 488.449 220.304 488.449 222.55 488.449C224.006 498.109 227.375 507.093 232.657 515.4C239.579 524.91 245.943 534.642 251.748 544.598C253.261 548.021 255.507 551.017 258.486 553.582C251.108 555.433 243.621 556.556 236.026 556.951C234.518 559.165 234.518 561.786 236.026 564.812C232.914 562.31 229.545 560.064 225.919 558.074C224.422 555.828 224.422 553.582 225.919 551.336C232.074 549.58 238.438 548.457 245.01 547.967C219.722 520.407 206.995 487.84 206.828 450.267C209.191 449.932 211.437 450.305 213.566 451.39C233.872 471.7 256.707 488.545 282.068 501.925C282.209 496.399 281.834 490.784 280.945 485.08C280.666 479.263 282.163 474.023 285.437 469.358C326.113 481.895 358.305 506.228 382.014 542.352C385.339 533.77 391.329 528.528 399.982 526.63Z" fill="#1C2016"/>
<path fill-rule="evenodd" clip-rule="evenodd" d="M220.305 468.232C222.667 467.897 224.913 468.27 227.043 469.355C239.304 480.113 252.78 489.097 267.47 496.307C269.349 498.577 270.098 501.198 269.716 504.168C251.333 494.761 234.862 482.781 220.305 468.232Z" fill="#0C2C13"/>
<path fill-rule="evenodd" clip-rule="evenodd" d="M550.463 576.038C546.726 582.01 542.984 587.998 539.233 594.006C529.364 606.869 517.387 617.348 503.298 625.45C505.696 617.82 510.936 613.328 519.02 611.974C518.766 606.249 520.264 601.009 523.511 596.252C523.042 594.936 522.292 593.813 521.265 592.883C527.601 588.074 530.595 581.709 530.249 573.792C520.001 576.921 512.89 583.659 508.913 594.006C508.504 600.129 507.381 606.119 505.544 611.974C501.955 614.186 498.211 614.559 494.314 613.097C496.946 608.612 499.94 604.495 503.298 600.744C500.223 593.078 494.983 590.832 487.576 594.006C476.988 606.795 465.011 618.024 451.64 627.696C449.554 630.366 448.806 633.36 449.394 636.68C457.601 635.687 465.837 634.937 474.1 634.434C471.854 635.932 469.608 637.427 467.362 638.926C459.876 638.926 452.388 638.926 444.902 638.926C458.252 613.202 477.718 592.616 503.298 577.161C518.016 567.358 534.112 561.743 551.586 560.316C555.703 560.691 559.822 561.064 563.939 561.439C558.984 566.014 554.492 570.879 550.463 576.038Z" fill="#158744"/>
<path fill-rule="evenodd" clip-rule="evenodd" d="M364.049 641.171C335.697 639.712 310.242 630.728 287.686 614.22C278.141 602.395 268.408 590.417 258.488 578.284C256.635 576.294 254.389 575.546 251.75 576.038C251.75 573.792 251.75 571.546 251.75 569.3C251.75 566.306 251.75 563.31 251.75 560.316C271.057 561.772 289.025 567.387 305.653 577.161C312.695 584.8 320.931 590.788 330.359 595.129C341.912 605.939 352.768 617.544 362.926 629.942C364.034 633.612 364.409 637.356 364.049 641.171Z" fill="#0D8D41"/>
<path fill-rule="evenodd" clip-rule="evenodd" d="M595.38 490.688C589.877 512.552 579.395 531.643 563.936 547.96C570.054 548.566 576.044 549.689 581.904 551.329C584.336 553.272 584.709 555.518 583.027 558.067C574.869 563.974 567.384 570.712 560.567 578.281C534.781 625.448 494.726 649.406 440.407 650.152C437.476 665.445 428.493 675.551 413.456 680.472C389.638 683.179 374.665 673.072 368.536 650.152C330.104 650.394 297.537 636.918 270.836 609.724C261.256 595.779 251.149 582.303 240.516 569.297C244.259 569.297 248.002 569.297 251.746 569.297C251.746 571.543 251.746 573.789 251.746 576.035C254.385 575.543 256.63 576.291 258.483 578.281C268.404 590.413 278.136 602.391 287.681 614.216C287.189 616.855 287.938 619.101 289.927 620.954C310.299 634.587 332.758 642.073 357.306 643.414C360.06 643.369 362.306 642.621 364.044 641.168C369.911 635.095 369.163 629.107 361.798 623.2C367.839 619.398 372.331 614.155 375.274 607.478C374.005 603.2 371.759 599.458 368.536 596.248C374.474 594.236 380.463 592.365 386.504 590.633C389.07 585.187 392.065 580.32 395.488 576.035C395.488 577.533 395.488 579.028 395.488 580.527C401.121 584.428 407.859 586.299 415.702 586.141C418.779 589.378 421.025 593.122 422.44 597.371C426.336 598.833 430.08 598.461 433.669 596.248C436.616 601.27 435.868 605.762 431.424 609.724C433.276 611.714 435.522 612.462 438.161 611.97C438.161 614.216 438.161 616.462 438.161 618.708C440.407 618.708 442.653 618.708 444.899 618.708C444.96 624.84 443.462 630.455 440.407 635.553C440.598 638.039 441.348 640.285 442.653 642.291C446.77 642.666 450.889 643.039 455.006 643.414C460.161 643.308 464.28 641.812 467.359 638.922C476.478 638.956 485.462 637.833 494.311 635.553C501.52 630.827 509.006 626.71 516.771 623.2C520.95 620.891 523.946 617.522 525.754 613.093C528 612.345 530.246 611.595 532.492 610.847C530.909 607.35 532.405 604.731 536.984 602.986C539.071 600.316 539.819 597.322 539.23 594.002C542.981 587.994 546.723 582.007 550.46 576.035C560.56 573.636 567.298 567.648 570.674 558.067C564.055 556.223 557.317 555.1 550.46 554.698C562.256 545.736 570.492 534.131 575.166 519.885C577.805 520.377 580.051 519.629 581.904 517.639C583.808 513.352 584.559 508.86 584.15 504.163C587.887 499.878 591.631 495.386 595.38 490.688Z" fill="#1F1D19"/>
<path fill-rule="evenodd" clip-rule="evenodd" d="M503.297 625.45C494.333 630.18 484.601 633.174 474.099 634.434C465.836 634.937 457.6 635.688 449.394 636.68C448.805 633.361 449.553 630.367 451.64 627.696C465.01 618.025 476.988 606.795 487.575 594.007C494.982 590.833 500.222 593.079 503.297 600.745C499.939 604.495 496.945 608.612 494.313 613.098C498.21 614.56 501.954 614.187 505.543 611.975C507.38 606.119 508.503 600.129 508.912 594.007C512.889 583.66 520 576.922 530.249 573.793C530.594 581.71 527.601 588.075 521.265 592.884C522.291 593.814 523.041 594.937 523.511 596.253C520.263 601.01 518.765 606.25 519.019 611.975C510.935 613.329 505.696 617.821 503.297 625.45Z" fill="#079040"/>
<path fill-rule="evenodd" clip-rule="evenodd" d="M287.685 614.227C310.242 630.734 335.696 639.718 364.048 641.178C362.31 642.631 360.064 643.379 357.311 643.424C332.763 642.083 310.303 634.598 289.931 620.964C287.942 619.112 287.193 616.866 287.685 614.227Z" fill="#0D2C12"/>
<path fill-rule="evenodd" clip-rule="evenodd" d="M516.78 479.465C520.551 482.834 523.545 486.951 525.764 491.818C514.453 507.441 517.447 511.558 534.748 504.171C529.762 510.43 523.774 515.67 516.78 519.892C497.579 551.078 472.873 577.282 442.663 598.502C439.55 604.013 440.673 608.505 446.032 611.977C457.553 601.965 469.158 591.858 480.844 581.657C500.762 566.088 523.221 555.981 548.224 551.336C553.427 545.009 559.042 539.019 565.068 533.368C570.369 522.722 576.732 512.988 584.159 504.171C584.568 508.867 583.818 513.359 581.913 517.646C580.06 519.636 577.814 520.384 575.175 519.892C570.501 534.139 562.265 545.744 550.469 554.705C557.326 555.107 564.064 556.23 570.683 558.074C567.308 567.655 560.57 573.643 550.469 576.042C554.499 570.883 558.991 566.018 563.945 561.443C559.828 561.068 555.709 560.695 551.592 560.32C534.119 561.746 518.022 567.361 503.304 577.165C477.725 592.619 458.259 613.206 444.909 638.929C452.394 638.929 459.883 638.929 467.368 638.929C464.289 641.82 460.17 643.315 455.016 643.421C450.899 643.046 446.78 642.673 442.663 642.298C441.358 640.292 440.608 638.046 440.417 635.56C443.471 630.462 444.969 624.847 444.909 618.715C442.663 618.715 440.417 618.715 438.171 618.715C438.171 616.469 438.171 614.223 438.171 611.977C435.532 612.469 433.286 611.721 431.433 609.731C435.878 605.769 436.625 601.278 433.679 596.256C430.09 598.468 426.346 598.841 422.449 597.379C421.034 593.129 418.788 589.385 415.711 586.149C407.868 586.306 401.13 584.435 395.497 580.534C401.38 581.136 406.994 580.388 412.342 578.288C419.743 563.565 419.367 549.342 411.219 535.614C397.809 531.491 391.071 536.733 391.005 551.336C391.576 559.772 393.074 568.008 395.497 576.042C392.074 580.327 389.08 585.194 386.513 590.641C380.472 592.372 374.483 594.243 368.545 596.256C371.768 599.465 374.014 603.207 375.283 607.485C372.341 614.163 367.849 619.405 361.808 623.207C369.172 629.114 369.92 635.102 364.054 641.175C364.413 637.359 364.039 633.615 362.931 629.945C352.773 617.547 341.917 605.942 330.364 595.133C320.935 590.791 312.7 584.803 305.658 577.165C289.029 567.39 271.062 561.775 251.755 560.32C251.755 563.314 251.755 566.31 251.755 569.304C248.011 569.304 244.268 569.304 240.525 569.304C238.279 568.556 236.782 567.058 236.033 564.812C234.525 561.787 234.525 559.166 236.033 556.951C243.628 556.556 251.115 555.433 258.493 553.582C255.514 551.017 253.268 548.021 251.755 544.598C255.573 545.757 258.567 548.003 260.739 551.336C268.259 553.104 275.745 554.977 283.198 556.951C296.476 563.967 309.952 570.33 323.626 576.042C332.632 586.185 342.364 596.291 352.824 606.362C357.183 610.637 362.424 612.507 368.545 611.977C368.905 608.161 368.531 604.417 367.423 600.747C335.162 577.234 308.585 548.785 287.69 515.4C291.634 513.038 293.132 509.294 292.182 504.171C305.355 529.002 322.574 551.089 343.84 570.427C348.199 574.701 353.44 576.572 359.562 576.042C358.948 580.424 360.445 583.793 364.054 586.149C370.705 589.661 377.443 590.036 384.267 587.272C386.77 572.1 383.027 558.624 373.037 546.844C379.989 547.127 384.106 550.871 385.39 558.074C387.473 550.184 389.345 542.323 391.005 534.491C398.198 531.16 405.685 530.41 413.465 532.245C418.168 539.545 421.91 547.406 424.695 555.828C426.936 551.359 429.182 546.867 431.433 542.352C433.286 540.362 435.532 539.614 438.171 540.106C429.371 553.371 423.381 567.97 420.203 583.903C423.698 588.511 428.19 591.88 433.679 594.01C467.683 570.115 495.01 540.169 515.657 504.171C516.778 495.968 517.15 487.735 516.78 479.465Z" fill="#132913"/>
<path fill-rule="evenodd" clip-rule="evenodd" d="M395.492 580.531C395.492 579.033 395.492 577.537 395.492 576.039C393.069 568.005 391.571 559.769 391 551.334C391.065 536.73 397.803 531.488 411.214 535.612C419.362 549.339 419.737 563.563 412.337 578.285C406.989 580.385 401.375 581.133 395.492 580.531Z" fill="#138942"/>
<path fill-rule="evenodd" clip-rule="evenodd" d="M539.234 594.008C539.823 597.327 539.075 600.321 536.989 602.992C532.409 604.737 530.913 607.356 532.497 610.853C530.251 611.601 528.005 612.351 525.759 613.099C523.951 617.528 520.954 620.897 516.775 623.205C509.01 626.716 501.525 630.833 494.315 635.558C485.466 637.838 476.482 638.961 467.363 638.927C469.609 637.429 471.855 635.933 474.101 634.435C484.603 633.175 494.335 630.181 503.299 625.451C517.388 617.35 529.366 606.871 539.234 594.008Z" fill="#092E12"/>
</g>
<defs>
<clipPath id="clip0_204_107">
<rect width="437.965" height="579.462" fill="white" transform="translate(181 110)"/>
</clipPath>
</defs>
</svg>
